<?xml version="1.0" standalone="no"?>
<!DOCTYPE svg PUBLIC "-//W3C//DTD SVG 20010904//EN"
 "http://www.w3.org/TR/2001/REC-SVG-20010904/DTD/svg10.dtd">
<svg version="1.0" xmlns="http://www.w3.org/2000/svg"
 width="260.000000pt" height="260.000000pt" viewBox="0 0 260.000000 260.000000"
 preserveAspectRatio="xMidYMid meet">
<metadata>
Created by potrace 1.14, written by Peter Selinger 2001-2017
</metadata>
<g transform="translate(0.000000,260.000000) scale(0.100000,-0.100000)"
fill="#000000" stroke="none">
<path d="M0 1300 l0 -1300 1300 0 1300 0 0 1300 0 1300 -1300 0 -1300 0 0
-1300z m878 218 c-4 -456 -4 -475 -26 -539 -47 -141 -145 -216 -298 -226 -76
-5 -190 9 -206 25 -4 4 -3 35 3 69 l11 61 31 -9 c38 -11 158 -13 189 -3 45 14
81 48 107 103 l26 56 3 468 3 467 80 0 80 0 -3 -472z m1312 407 l0 -65 -250 0
-250 0 0 -205 0 -205 230 0 230 0 0 -65 0 -65 -230 0 -230 0 0 -275 0 -275
-80 0 -80 0 0 610 0 610 330 0 330 0 0 -65z"/>
</g>
</svg>
